<?xml version="1.0" encoding="utf-8" standalone="no"?>
<!DOCTYPE svg PUBLIC "-//W3C//DTD SVG 1.1//EN"
  "http://www.w3.org/Graphics/SVG/1.1/DTD/svg11.dtd">
<svg xmlns:xlink="http://www.w3.org/1999/xlink" width="230.4pt" height="309.6pt" viewBox="0 0 230.4 309.6" xmlns="http://www.w3.org/2000/svg" version="1.1">
 <metadata>
  <rdf:RDF xmlns:dc="http://purl.org/dc/elements/1.1/" xmlns:cc="http://creativecommons.org/ns#" xmlns:rdf="http://www.w3.org/1999/02/22-rdf-syntax-ns#">
   <cc:Work>
    <dc:type rdf:resource="http://purl.org/dc/dcmitype/StillImage"/>
    <dc:date>2026-07-28T15:50:36.839170</dc:date>
    <dc:format>image/svg+xml</dc:format>
    <dc:creator>
     <cc:Agent>
      <dc:title>Matplotlib v3.10.8, https://matplotlib.org/</dc:title>
     </cc:Agent>
    </dc:creator>
   </cc:Work>
  </rdf:RDF>
 </metadata>
 <defs>
  <style type="text/css">*{stroke-linejoin: round; stroke-linecap: butt}</style>
 </defs>
 <g id="figure_1">
  <g id="patch_1">
   <path d="M 0 309.6 
L 230.4 309.6 
L 230.4 0 
L 0 0 
z
" style="fill: #ffffff"/>
  </g>
  <g id="axes_1">
   <g id="patch_2">
    <path d="M 10.8 298.8 
L 203.662721 298.8 
L 203.662721 24 
L 10.8 24 
z
" style="fill: #eef2f7"/>
   </g>
   <g id="patch_3">
    <path d="M 108.195674 118.806 
C 109.985847 118.806 111.70294 117.792587 112.968783 115.988953 
C 114.234626 114.185319 114.945869 111.738723 114.945869 109.188 
C 114.945869 106.637277 114.234626 104.190681 112.968783 102.387047 
C 111.70294 100.583413 109.985847 99.57 108.195674 99.57 
C 106.405501 99.57 104.688409 100.583413 103.422565 102.387047 
C 102.156722 104.190681 101.445479 106.637277 101.445479 109.188 
C 101.445479 111.738723 102.156722 114.185319 103.422565 115.988953 
C 104.688409 117.792587 106.405501 118.806 108.195674 118.806 
L 108.195674 118.806 
z
" clip-path="url(#pcde96b328c)" style="fill: none; stroke: #595959; stroke-width: 3; stroke-linejoin: miter"/>
   </g>
   <g id="matplotlib.axis_1"/>
   <g id="matplotlib.axis_2"/>
   <g id="line2d_1">
    <path d="M 99.516852 183.384 
L 105.302733 128.424 
" clip-path="url(#pcde96b328c)" style="fill: none; stroke: #595959; stroke-width: 3; stroke-linecap: square"/>
   </g>
   <g id="line2d_2">
    <path d="M 99.516852 183.384 
L 91.802343 238.344 
" clip-path="url(#pcde96b328c)" style="fill: none; stroke: #595959; stroke-width: 3; stroke-linecap: square"/>
   </g>
   <g id="line2d_3">
    <path d="M 99.516852 183.384 
L 109.159988 238.344 
" clip-path="url(#pcde96b328c)" style="fill: none; stroke: #595959; stroke-width: 3; stroke-linecap: square"/>
   </g>
   <g id="line2d_4">
    <path d="M 49.120914 174.048012 
L 48.123539 169.799083 
L 47.284323 165.481316 
L 46.605586 161.106653 
L 46.089207 156.687196 
L 45.65566 150.746049 
L 45.515366 144.776218 
L 45.669015 138.807055 
L 46.115852 132.867907 
L 46.85368 126.987973 
L 47.595885 122.634288 
L 48.497707 118.342223 
L 49.556654 114.12365 
L 50.769794 109.990238 
L 52.133773 105.95342 
L 53.644819 102.024363 
L 55.298751 98.213933 
L 57.090994 94.53267 
L 59.016592 90.990758 
L 61.070218 87.597992 
L 63.246192 84.363757 
L 65.538494 81.297 
L 67.940785 78.406203 
L 70.44642 75.699361 
L 73.048467 73.183963 
L 75.739731 70.866965 
L 78.512766 68.754777 
L 81.359902 66.853241 
L 84.273265 65.167617 
L 87.244795 63.702566 
L 90.266274 62.462142 
L 93.329344 61.449775 
L 96.425533 60.668266 
L 99.546276 60.119776 
L 102.682941 59.805822 
L 105.826853 59.727273 
L 108.969315 59.884347 
L 112.101635 60.276608 
L 115.21515 60.902971 
L 118.301246 61.761705 
L 121.351389 62.850433 
L 124.35714 64.166145 
L 127.310187 65.705201 
L 130.202361 67.463344 
L 133.025663 69.435711 
L 135.772282 71.616846 
L 138.434622 74.000717 
L 141.005319 76.580729 
L 143.477262 79.349747 
L 145.843614 82.30011 
L 148.097829 85.423659 
L 150.233673 88.711754 
L 152.245236 92.155299 
L 154.126957 95.744769 
L 155.873629 99.470237 
L 157.480421 103.321398 
L 158.942889 107.287599 
L 160.256987 111.357869 
L 161.419081 115.52095 
L 162.425957 119.765328 
L 163.274829 124.079261 
L 163.96335 128.450818 
L 164.489615 132.867907 
L 164.936452 138.807055 
L 165.090101 144.776218 
L 164.949807 150.746049 
L 164.51626 156.687196 
L 163.791591 162.570452 
L 163.059131 166.927486 
L 162.166915 171.223626 
L 161.484553 174.048012 
L 161.484553 174.048012 
" clip-path="url(#pcde96b328c)" style="fill: none; stroke-dasharray: 5.92,2.56; stroke-dashoffset: 0; stroke: #4f81bd; stroke-opacity: 0.8; stroke-width: 1.6"/>
   </g>
   <g id="line2d_5">
    <path d="M 105.302733 128.424 
L 105.826853 59.727273 
" clip-path="url(#pcde96b328c)" style="fill: none; stroke: #000000; stroke-opacity: 0.7; stroke-width: 1.8; stroke-linecap: square"/>
   </g>
   <g id="patch_4">
    <path d="M 10.8 298.8 
L 10.8 24 
" style="fill: none; stroke: #595959; stroke-width: 0.8; stroke-linejoin: miter; stroke-linecap: square"/>
   </g>
   <g id="patch_5">
    <path d="M 203.662721 298.8 
L 203.662721 24 
" style="fill: none; stroke: #595959; stroke-width: 0.8; stroke-linejoin: miter; stroke-linecap: square"/>
   </g>
   <g id="patch_6">
    <path d="M 10.8 298.8 
L 203.662721 298.8 
" style="fill: none; stroke: #595959; stroke-width: 0.8; stroke-linejoin: miter; stroke-linecap: square"/>
   </g>
   <g id="patch_7">
    <path d="M 10.8 24 
L 203.662721 24 
" style="fill: none; stroke: #595959; stroke-width: 0.8; stroke-linejoin: miter; stroke-linecap: square"/>
   </g>
   <g id="text_1">
    <!-- Address -->
    <g style="fill: #9bbb59" transform="translate(52.546336 161.927486) scale(0.075 -0.075)">
     <defs>
      <path id="DejaVuSans-Bold-41" d="M 3419 850 
L 1538 850 
L 1241 0 
L 31 0 
L 1759 4666 
L 3194 4666 
L 4922 0 
L 3713 0 
L 3419 850 
z
M 1838 1716 
L 3116 1716 
L 2478 3572 
L 1838 1716 
z
" transform="scale(0.015625)"/>
      <path id="DejaVuSans-Bold-64" d="M 2919 2988 
L 2919 4863 
L 4044 4863 
L 4044 0 
L 2919 0 
L 2919 506 
Q 2688 197 2409 53 
Q 2131 -91 1766 -91 
Q 1119 -91 703 423 
Q 288 938 288 1747 
Q 288 2556 703 3070 
Q 1119 3584 1766 3584 
Q 2128 3584 2408 3439 
Q 2688 3294 2919 2988 
z
M 2181 722 
Q 2541 722 2730 984 
Q 2919 1247 2919 1747 
Q 2919 2247 2730 2509 
Q 2541 2772 2181 2772 
Q 1825 2772 1636 2509 
Q 1447 2247 1447 1747 
Q 1447 1247 1636 984 
Q 1825 722 2181 722 
z
" transform="scale(0.015625)"/>
      <path id="DejaVuSans-Bold-72" d="M 3138 2547 
Q 2991 2616 2845 2648 
Q 2700 2681 2553 2681 
Q 2122 2681 1889 2404 
Q 1656 2128 1656 1613 
L 1656 0 
L 538 0 
L 538 3500 
L 1656 3500 
L 1656 2925 
Q 1872 3269 2151 3426 
Q 2431 3584 2822 3584 
Q 2878 3584 2943 3579 
Q 3009 3575 3134 3559 
L 3138 2547 
z
" transform="scale(0.015625)"/>
      <path id="DejaVuSans-Bold-65" d="M 4031 1759 
L 4031 1441 
L 1416 1441 
Q 1456 1047 1700 850 
Q 1944 653 2381 653 
Q 2734 653 3104 758 
Q 3475 863 3866 1075 
L 3866 213 
Q 3469 63 3072 -14 
Q 2675 -91 2278 -91 
Q 1328 -91 801 392 
Q 275 875 275 1747 
Q 275 2603 792 3093 
Q 1309 3584 2216 3584 
Q 3041 3584 3536 3087 
Q 4031 2591 4031 1759 
z
M 2881 2131 
Q 2881 2450 2695 2645 
Q 2509 2841 2209 2841 
Q 1884 2841 1681 2658 
Q 1478 2475 1428 2131 
L 2881 2131 
z
" transform="scale(0.015625)"/>
      <path id="DejaVuSans-Bold-73" d="M 3272 3391 
L 3272 2541 
Q 2913 2691 2578 2766 
Q 2244 2841 1947 2841 
Q 1628 2841 1473 2761 
Q 1319 2681 1319 2516 
Q 1319 2381 1436 2309 
Q 1553 2238 1856 2203 
L 2053 2175 
Q 2913 2066 3209 1816 
Q 3506 1566 3506 1031 
Q 3506 472 3093 190 
Q 2681 -91 1863 -91 
Q 1516 -91 1145 -36 
Q 775 19 384 128 
L 384 978 
Q 719 816 1070 734 
Q 1422 653 1784 653 
Q 2113 653 2278 743 
Q 2444 834 2444 1013 
Q 2444 1163 2330 1236 
Q 2216 1309 1875 1350 
L 1678 1375 
Q 931 1469 631 1722 
Q 331 1975 331 2491 
Q 331 3047 712 3315 
Q 1094 3584 1881 3584 
Q 2191 3584 2531 3537 
Q 2872 3491 3272 3391 
z
" transform="scale(0.015625)"/>
     </defs>
     <use xlink:href="#DejaVuSans-Bold-41"/>
     <use xlink:href="#DejaVuSans-Bold-64" transform="translate(77.392578 0)"/>
     <use xlink:href="#DejaVuSans-Bold-64" transform="translate(148.974609 0)"/>
     <use xlink:href="#DejaVuSans-Bold-72" transform="translate(220.556641 0)"/>
     <use xlink:href="#DejaVuSans-Bold-65" transform="translate(269.873047 0)"/>
     <use xlink:href="#DejaVuSans-Bold-73" transform="translate(337.695312 0)"/>
     <use xlink:href="#DejaVuSans-Bold-73" transform="translate(397.216797 0)"/>
    </g>
   </g>
   <g id="text_2">
    <!-- Top of -->
    <g style="fill: #8064a2" transform="translate(169.362271 144.766214) scale(0.075 -0.075)">
     <defs>
      <path id="DejaVuSans-Bold-54" d="M 31 4666 
L 4331 4666 
L 4331 3756 
L 2784 3756 
L 2784 0 
L 1581 0 
L 1581 3756 
L 31 3756 
L 31 4666 
z
" transform="scale(0.015625)"/>
      <path id="DejaVuSans-Bold-6f" d="M 2203 2784 
Q 1831 2784 1636 2517 
Q 1441 2250 1441 1747 
Q 1441 1244 1636 976 
Q 1831 709 2203 709 
Q 2569 709 2762 976 
Q 2956 1244 2956 1747 
Q 2956 2250 2762 2517 
Q 2569 2784 2203 2784 
z
M 2203 3584 
Q 3106 3584 3614 3096 
Q 4122 2609 4122 1747 
Q 4122 884 3614 396 
Q 3106 -91 2203 -91 
Q 1297 -91 786 396 
Q 275 884 275 1747 
Q 275 2609 786 3096 
Q 1297 3584 2203 3584 
z
" transform="scale(0.015625)"/>
      <path id="DejaVuSans-Bold-70" d="M 1656 506 
L 1656 -1331 
L 538 -1331 
L 538 3500 
L 1656 3500 
L 1656 2988 
Q 1888 3294 2169 3439 
Q 2450 3584 2816 3584 
Q 3463 3584 3878 3070 
Q 4294 2556 4294 1747 
Q 4294 938 3878 423 
Q 3463 -91 2816 -91 
Q 2450 -91 2169 54 
Q 1888 200 1656 506 
z
M 2400 2772 
Q 2041 2772 1848 2508 
Q 1656 2244 1656 1747 
Q 1656 1250 1848 986 
Q 2041 722 2400 722 
Q 2759 722 2948 984 
Q 3138 1247 3138 1747 
Q 3138 2247 2948 2509 
Q 2759 2772 2400 2772 
z
" transform="scale(0.015625)"/>
      <path id="DejaVuSans-Bold-20" transform="scale(0.015625)"/>
      <path id="DejaVuSans-Bold-66" d="M 2841 4863 
L 2841 4128 
L 2222 4128 
Q 1984 4128 1890 4042 
Q 1797 3956 1797 3744 
L 1797 3500 
L 2753 3500 
L 2753 2700 
L 1797 2700 
L 1797 0 
L 678 0 
L 678 2700 
L 122 2700 
L 122 3500 
L 678 3500 
L 678 3744 
Q 678 4316 997 4589 
Q 1316 4863 1984 4863 
L 2841 4863 
z
" transform="scale(0.015625)"/>
     </defs>
     <use xlink:href="#DejaVuSans-Bold-54"/>
     <use xlink:href="#DejaVuSans-Bold-6f" transform="translate(54.962891 0)"/>
     <use xlink:href="#DejaVuSans-Bold-70" transform="translate(123.664062 0)"/>
     <use xlink:href="#DejaVuSans-Bold-20" transform="translate(195.246094 0)"/>
     <use xlink:href="#DejaVuSans-Bold-6f" transform="translate(230.060547 0)"/>
     <use xlink:href="#DejaVuSans-Bold-66" transform="translate(298.761719 0)"/>
    </g>
    <!-- backswing -->
    <g style="fill: #8064a2" transform="translate(169.362271 153.164574) scale(0.075 -0.075)">
     <defs>
      <path id="DejaVuSans-Bold-62" d="M 2400 722 
Q 2759 722 2948 984 
Q 3138 1247 3138 1747 
Q 3138 2247 2948 2509 
Q 2759 2772 2400 2772 
Q 2041 2772 1848 2508 
Q 1656 2244 1656 1747 
Q 1656 1250 1848 986 
Q 2041 722 2400 722 
z
M 1656 2988 
Q 1888 3294 2169 3439 
Q 2450 3584 2816 3584 
Q 3463 3584 3878 3070 
Q 4294 2556 4294 1747 
Q 4294 938 3878 423 
Q 3463 -91 2816 -91 
Q 2450 -91 2169 54 
Q 1888 200 1656 506 
L 1656 0 
L 538 0 
L 538 4863 
L 1656 4863 
L 1656 2988 
z
" transform="scale(0.015625)"/>
      <path id="DejaVuSans-Bold-61" d="M 2106 1575 
Q 1756 1575 1579 1456 
Q 1403 1338 1403 1106 
Q 1403 894 1545 773 
Q 1688 653 1941 653 
Q 2256 653 2472 879 
Q 2688 1106 2688 1447 
L 2688 1575 
L 2106 1575 
z
M 3816 1997 
L 3816 0 
L 2688 0 
L 2688 519 
Q 2463 200 2181 54 
Q 1900 -91 1497 -91 
Q 953 -91 614 226 
Q 275 544 275 1050 
Q 275 1666 698 1953 
Q 1122 2241 2028 2241 
L 2688 2241 
L 2688 2328 
Q 2688 2594 2478 2717 
Q 2269 2841 1825 2841 
Q 1466 2841 1156 2769 
Q 847 2697 581 2553 
L 581 3406 
Q 941 3494 1303 3539 
Q 1666 3584 2028 3584 
Q 2975 3584 3395 3211 
Q 3816 2838 3816 1997 
z
" transform="scale(0.015625)"/>
      <path id="DejaVuSans-Bold-63" d="M 3366 3391 
L 3366 2478 
Q 3138 2634 2908 2709 
Q 2678 2784 2431 2784 
Q 1963 2784 1702 2511 
Q 1441 2238 1441 1747 
Q 1441 1256 1702 982 
Q 1963 709 2431 709 
Q 2694 709 2930 787 
Q 3166 866 3366 1019 
L 3366 103 
Q 3103 6 2833 -42 
Q 2563 -91 2291 -91 
Q 1344 -91 809 395 
Q 275 881 275 1747 
Q 275 2613 809 3098 
Q 1344 3584 2291 3584 
Q 2566 3584 2833 3536 
Q 3100 3488 3366 3391 
z
" transform="scale(0.015625)"/>
      <path id="DejaVuSans-Bold-6b" d="M 538 4863 
L 1656 4863 
L 1656 2216 
L 2944 3500 
L 4244 3500 
L 2534 1894 
L 4378 0 
L 3022 0 
L 1656 1459 
L 1656 0 
L 538 0 
L 538 4863 
z
" transform="scale(0.015625)"/>
      <path id="DejaVuSans-Bold-77" d="M 225 3500 
L 1313 3500 
L 1900 1088 
L 2491 3500 
L 3425 3500 
L 4013 1113 
L 4603 3500 
L 5691 3500 
L 4769 0 
L 3547 0 
L 2956 2406 
L 2369 0 
L 1147 0 
L 225 3500 
z
" transform="scale(0.015625)"/>
      <path id="DejaVuSans-Bold-69" d="M 538 3500 
L 1656 3500 
L 1656 0 
L 538 0 
L 538 3500 
z
M 538 4863 
L 1656 4863 
L 1656 3950 
L 538 3950 
L 538 4863 
z
" transform="scale(0.015625)"/>
      <path id="DejaVuSans-Bold-6e" d="M 4056 2131 
L 4056 0 
L 2931 0 
L 2931 347 
L 2931 1631 
Q 2931 2084 2911 2256 
Q 2891 2428 2841 2509 
Q 2775 2619 2662 2680 
Q 2550 2741 2406 2741 
Q 2056 2741 1856 2470 
Q 1656 2200 1656 1722 
L 1656 0 
L 538 0 
L 538 3500 
L 1656 3500 
L 1656 2988 
Q 1909 3294 2193 3439 
Q 2478 3584 2822 3584 
Q 3428 3584 3742 3212 
Q 4056 2841 4056 2131 
z
" transform="scale(0.015625)"/>
      <path id="DejaVuSans-Bold-67" d="M 2919 594 
Q 2688 288 2409 144 
Q 2131 0 1766 0 
Q 1125 0 706 504 
Q 288 1009 288 1791 
Q 288 2575 706 3076 
Q 1125 3578 1766 3578 
Q 2131 3578 2409 3434 
Q 2688 3291 2919 2981 
L 2919 3500 
L 4044 3500 
L 4044 353 
Q 4044 -491 3511 -936 
Q 2978 -1381 1966 -1381 
Q 1638 -1381 1331 -1331 
Q 1025 -1281 716 -1178 
L 716 -306 
Q 1009 -475 1290 -558 
Q 1572 -641 1856 -641 
Q 2406 -641 2662 -400 
Q 2919 -159 2919 353 
L 2919 594 
z
M 2181 2772 
Q 1834 2772 1640 2515 
Q 1447 2259 1447 1791 
Q 1447 1309 1634 1061 
Q 1822 813 2181 813 
Q 2531 813 2725 1069 
Q 2919 1325 2919 1791 
Q 2919 2259 2725 2515 
Q 2531 2772 2181 2772 
z
" transform="scale(0.015625)"/>
     </defs>
     <use xlink:href="#DejaVuSans-Bold-62"/>
     <use xlink:href="#DejaVuSans-Bold-61" transform="translate(71.582031 0)"/>
     <use xlink:href="#DejaVuSans-Bold-63" transform="translate(139.0625 0)"/>
     <use xlink:href="#DejaVuSans-Bold-6b" transform="translate(198.339844 0)"/>
     <use xlink:href="#DejaVuSans-Bold-73" transform="translate(264.84375 0)"/>
     <use xlink:href="#DejaVuSans-Bold-77" transform="translate(324.365234 0)"/>
     <use xlink:href="#DejaVuSans-Bold-69" transform="translate(416.748047 0)"/>
     <use xlink:href="#DejaVuSans-Bold-6e" transform="translate(451.025391 0)"/>
     <use xlink:href="#DejaVuSans-Bold-67" transform="translate(522.216797 0)"/>
    </g>
   </g>
   <g id="text_3">
    <!-- Downswing -->
    <g style="fill: #4f81bd" transform="translate(168.274829 110.622308) scale(0.075 -0.075)">
     <defs>
      <path id="DejaVuSans-Bold-44" d="M 1791 3756 
L 1791 909 
L 2222 909 
Q 2959 909 3348 1275 
Q 3738 1641 3738 2338 
Q 3738 3031 3350 3393 
Q 2963 3756 2222 3756 
L 1791 3756 
z
M 588 4666 
L 1856 4666 
Q 2919 4666 3439 4514 
Q 3959 4363 4331 4000 
Q 4659 3684 4818 3271 
Q 4978 2859 4978 2338 
Q 4978 1809 4818 1395 
Q 4659 981 4331 666 
Q 3956 303 3431 151 
Q 2906 0 1856 0 
L 588 0 
L 588 4666 
z
" transform="scale(0.015625)"/>
     </defs>
     <use xlink:href="#DejaVuSans-Bold-44"/>
     <use xlink:href="#DejaVuSans-Bold-6f" transform="translate(83.007812 0)"/>
     <use xlink:href="#DejaVuSans-Bold-77" transform="translate(151.708984 0)"/>
     <use xlink:href="#DejaVuSans-Bold-6e" transform="translate(244.091797 0)"/>
     <use xlink:href="#DejaVuSans-Bold-73" transform="translate(315.283203 0)"/>
     <use xlink:href="#DejaVuSans-Bold-77" transform="translate(374.804688 0)"/>
     <use xlink:href="#DejaVuSans-Bold-69" transform="translate(467.1875 0)"/>
     <use xlink:href="#DejaVuSans-Bold-6e" transform="translate(501.464844 0)"/>
     <use xlink:href="#DejaVuSans-Bold-67" transform="translate(572.65625 0)"/>
    </g>
    <!-- transition -->
    <g style="fill: #4f81bd" transform="translate(168.274829 119.079261) scale(0.075 -0.075)">
     <defs>
      <path id="DejaVuSans-Bold-74" d="M 1759 4494 
L 1759 3500 
L 2913 3500 
L 2913 2700 
L 1759 2700 
L 1759 1216 
Q 1759 972 1856 886 
Q 1953 800 2241 800 
L 2816 800 
L 2816 0 
L 1856 0 
Q 1194 0 917 276 
Q 641 553 641 1216 
L 641 2700 
L 84 2700 
L 84 3500 
L 641 3500 
L 641 4494 
L 1759 4494 
z
" transform="scale(0.015625)"/>
     </defs>
     <use xlink:href="#DejaVuSans-Bold-74"/>
     <use xlink:href="#DejaVuSans-Bold-72" transform="translate(47.802734 0)"/>
     <use xlink:href="#DejaVuSans-Bold-61" transform="translate(97.119141 0)"/>
     <use xlink:href="#DejaVuSans-Bold-6e" transform="translate(164.599609 0)"/>
     <use xlink:href="#DejaVuSans-Bold-73" transform="translate(235.791016 0)"/>
     <use xlink:href="#DejaVuSans-Bold-69" transform="translate(295.3125 0)"/>
     <use xlink:href="#DejaVuSans-Bold-74" transform="translate(329.589844 0)"/>
     <use xlink:href="#DejaVuSans-Bold-69" transform="translate(377.392578 0)"/>
     <use xlink:href="#DejaVuSans-Bold-6f" transform="translate(411.669922 0)"/>
     <use xlink:href="#DejaVuSans-Bold-6e" transform="translate(480.371094 0)"/>
    </g>
   </g>
   <g id="text_4">
    <!-- Impact -->
    <g style="fill: #c0504d" transform="translate(110.826853 54.727273) scale(0.075 -0.075)">
     <defs>
      <path id="DejaVuSans-Bold-49" d="M 588 4666 
L 1791 4666 
L 1791 0 
L 588 0 
L 588 4666 
z
" transform="scale(0.015625)"/>
      <path id="DejaVuSans-Bold-6d" d="M 3781 2919 
Q 3994 3244 4286 3414 
Q 4578 3584 4928 3584 
Q 5531 3584 5847 3212 
Q 6163 2841 6163 2131 
L 6163 0 
L 5038 0 
L 5038 1825 
Q 5041 1866 5042 1909 
Q 5044 1953 5044 2034 
Q 5044 2406 4934 2573 
Q 4825 2741 4581 2741 
Q 4263 2741 4089 2478 
Q 3916 2216 3909 1719 
L 3909 0 
L 2784 0 
L 2784 1825 
Q 2784 2406 2684 2573 
Q 2584 2741 2328 2741 
Q 2006 2741 1831 2477 
Q 1656 2213 1656 1722 
L 1656 0 
L 531 0 
L 531 3500 
L 1656 3500 
L 1656 2988 
Q 1863 3284 2130 3434 
Q 2397 3584 2719 3584 
Q 3081 3584 3359 3409 
Q 3638 3234 3781 2919 
z
" transform="scale(0.015625)"/>
     </defs>
     <use xlink:href="#DejaVuSans-Bold-49"/>
     <use xlink:href="#DejaVuSans-Bold-6d" transform="translate(37.207031 0)"/>
     <use xlink:href="#DejaVuSans-Bold-70" transform="translate(141.40625 0)"/>
     <use xlink:href="#DejaVuSans-Bold-61" transform="translate(212.988281 0)"/>
     <use xlink:href="#DejaVuSans-Bold-63" transform="translate(280.46875 0)"/>
     <use xlink:href="#DejaVuSans-Bold-74" transform="translate(339.746094 0)"/>
    </g>
   </g>
   <g id="text_5">
    <!-- Operational event and point annotations -->
    <g transform="translate(15.64722 18) scale(0.09 -0.09)">
     <defs>
      <path id="DejaVuSans-4f" d="M 2522 4238 
Q 1834 4238 1429 3725 
Q 1025 3213 1025 2328 
Q 1025 1447 1429 934 
Q 1834 422 2522 422 
Q 3209 422 3611 934 
Q 4013 1447 4013 2328 
Q 4013 3213 3611 3725 
Q 3209 4238 2522 4238 
z
M 2522 4750 
Q 3503 4750 4090 4092 
Q 4678 3434 4678 2328 
Q 4678 1225 4090 567 
Q 3503 -91 2522 -91 
Q 1538 -91 948 565 
Q 359 1222 359 2328 
Q 359 3434 948 4092 
Q 1538 4750 2522 4750 
z
" transform="scale(0.015625)"/>
      <path id="DejaVuSans-70" d="M 1159 525 
L 1159 -1331 
L 581 -1331 
L 581 3500 
L 1159 3500 
L 1159 2969 
Q 1341 3281 1617 3432 
Q 1894 3584 2278 3584 
Q 2916 3584 3314 3078 
Q 3713 2572 3713 1747 
Q 3713 922 3314 415 
Q 2916 -91 2278 -91 
Q 1894 -91 1617 61 
Q 1341 213 1159 525 
z
M 3116 1747 
Q 3116 2381 2855 2742 
Q 2594 3103 2138 3103 
Q 1681 3103 1420 2742 
Q 1159 2381 1159 1747 
Q 1159 1113 1420 752 
Q 1681 391 2138 391 
Q 2594 391 2855 752 
Q 3116 1113 3116 1747 
z
" transform="scale(0.015625)"/>
      <path id="DejaVuSans-65" d="M 3597 1894 
L 3597 1613 
L 953 1613 
Q 991 1019 1311 708 
Q 1631 397 2203 397 
Q 2534 397 2845 478 
Q 3156 559 3463 722 
L 3463 178 
Q 3153 47 2828 -22 
Q 2503 -91 2169 -91 
Q 1331 -91 842 396 
Q 353 884 353 1716 
Q 353 2575 817 3079 
Q 1281 3584 2069 3584 
Q 2775 3584 3186 3129 
Q 3597 2675 3597 1894 
z
M 3022 2063 
Q 3016 2534 2758 2815 
Q 2500 3097 2075 3097 
Q 1594 3097 1305 2825 
Q 1016 2553 972 2059 
L 3022 2063 
z
" transform="scale(0.015625)"/>
      <path id="DejaVuSans-72" d="M 2631 2963 
Q 2534 3019 2420 3045 
Q 2306 3072 2169 3072 
Q 1681 3072 1420 2755 
Q 1159 2438 1159 1844 
L 1159 0 
L 581 0 
L 581 3500 
L 1159 3500 
L 1159 2956 
Q 1341 3275 1631 3429 
Q 1922 3584 2338 3584 
Q 2397 3584 2469 3576 
Q 2541 3569 2628 3553 
L 2631 2963 
z
" transform="scale(0.015625)"/>
      <path id="DejaVuSans-61" d="M 2194 1759 
Q 1497 1759 1228 1600 
Q 959 1441 959 1056 
Q 959 750 1161 570 
Q 1363 391 1709 391 
Q 2188 391 2477 730 
Q 2766 1069 2766 1631 
L 2766 1759 
L 2194 1759 
z
M 3341 1997 
L 3341 0 
L 2766 0 
L 2766 531 
Q 2569 213 2275 61 
Q 1981 -91 1556 -91 
Q 1019 -91 701 211 
Q 384 513 384 1019 
Q 384 1609 779 1909 
Q 1175 2209 1959 2209 
L 2766 2209 
L 2766 2266 
Q 2766 2663 2505 2880 
Q 2244 3097 1772 3097 
Q 1472 3097 1187 3025 
Q 903 2953 641 2809 
L 641 3341 
Q 956 3463 1253 3523 
Q 1550 3584 1831 3584 
Q 2591 3584 2966 3190 
Q 3341 2797 3341 1997 
z
" transform="scale(0.015625)"/>
      <path id="DejaVuSans-74" d="M 1172 4494 
L 1172 3500 
L 2356 3500 
L 2356 3053 
L 1172 3053 
L 1172 1153 
Q 1172 725 1289 603 
Q 1406 481 1766 481 
L 2356 481 
L 2356 0 
L 1766 0 
Q 1100 0 847 248 
Q 594 497 594 1153 
L 594 3053 
L 172 3053 
L 172 3500 
L 594 3500 
L 594 4494 
L 1172 4494 
z
" transform="scale(0.015625)"/>
      <path id="DejaVuSans-69" d="M 603 3500 
L 1178 3500 
L 1178 0 
L 603 0 
L 603 3500 
z
M 603 4863 
L 1178 4863 
L 1178 4134 
L 603 4134 
L 603 4863 
z
" transform="scale(0.015625)"/>
      <path id="DejaVuSans-6f" d="M 1959 3097 
Q 1497 3097 1228 2736 
Q 959 2375 959 1747 
Q 959 1119 1226 758 
Q 1494 397 1959 397 
Q 2419 397 2687 759 
Q 2956 1122 2956 1747 
Q 2956 2369 2687 2733 
Q 2419 3097 1959 3097 
z
M 1959 3584 
Q 2709 3584 3137 3096 
Q 3566 2609 3566 1747 
Q 3566 888 3137 398 
Q 2709 -91 1959 -91 
Q 1206 -91 779 398 
Q 353 888 353 1747 
Q 353 2609 779 3096 
Q 1206 3584 1959 3584 
z
" transform="scale(0.015625)"/>
      <path id="DejaVuSans-6e" d="M 3513 2113 
L 3513 0 
L 2938 0 
L 2938 2094 
Q 2938 2591 2744 2837 
Q 2550 3084 2163 3084 
Q 1697 3084 1428 2787 
Q 1159 2491 1159 1978 
L 1159 0 
L 581 0 
L 581 3500 
L 1159 3500 
L 1159 2956 
Q 1366 3272 1645 3428 
Q 1925 3584 2291 3584 
Q 2894 3584 3203 3211 
Q 3513 2838 3513 2113 
z
" transform="scale(0.015625)"/>
      <path id="DejaVuSans-6c" d="M 603 4863 
L 1178 4863 
L 1178 0 
L 603 0 
L 603 4863 
z
" transform="scale(0.015625)"/>
      <path id="DejaVuSans-20" transform="scale(0.015625)"/>
      <path id="DejaVuSans-76" d="M 191 3500 
L 800 3500 
L 1894 563 
L 2988 3500 
L 3597 3500 
L 2284 0 
L 1503 0 
L 191 3500 
z
" transform="scale(0.015625)"/>
      <path id="DejaVuSans-64" d="M 2906 2969 
L 2906 4863 
L 3481 4863 
L 3481 0 
L 2906 0 
L 2906 525 
Q 2725 213 2448 61 
Q 2172 -91 1784 -91 
Q 1150 -91 751 415 
Q 353 922 353 1747 
Q 353 2572 751 3078 
Q 1150 3584 1784 3584 
Q 2172 3584 2448 3432 
Q 2725 3281 2906 2969 
z
M 947 1747 
Q 947 1113 1208 752 
Q 1469 391 1925 391 
Q 2381 391 2643 752 
Q 2906 1113 2906 1747 
Q 2906 2381 2643 2742 
Q 2381 3103 1925 3103 
Q 1469 3103 1208 2742 
Q 947 2381 947 1747 
z
" transform="scale(0.015625)"/>
      <path id="DejaVuSans-73" d="M 2834 3397 
L 2834 2853 
Q 2591 2978 2328 3040 
Q 2066 3103 1784 3103 
Q 1356 3103 1142 2972 
Q 928 2841 928 2578 
Q 928 2378 1081 2264 
Q 1234 2150 1697 2047 
L 1894 2003 
Q 2506 1872 2764 1633 
Q 3022 1394 3022 966 
Q 3022 478 2636 193 
Q 2250 -91 1575 -91 
Q 1294 -91 989 -36 
Q 684 19 347 128 
L 347 722 
Q 666 556 975 473 
Q 1284 391 1588 391 
Q 1994 391 2212 530 
Q 2431 669 2431 922 
Q 2431 1156 2273 1281 
Q 2116 1406 1581 1522 
L 1381 1569 
Q 847 1681 609 1914 
Q 372 2147 372 2553 
Q 372 3047 722 3315 
Q 1072 3584 1716 3584 
Q 2034 3584 2315 3537 
Q 2597 3491 2834 3397 
z
" transform="scale(0.015625)"/>
     </defs>
     <use xlink:href="#DejaVuSans-4f"/>
     <use xlink:href="#DejaVuSans-70" transform="translate(78.710938 0)"/>
     <use xlink:href="#DejaVuSans-65" transform="translate(142.1875 0)"/>
     <use xlink:href="#DejaVuSans-72" transform="translate(203.710938 0)"/>
     <use xlink:href="#DejaVuSans-61" transform="translate(244.824219 0)"/>
     <use xlink:href="#DejaVuSans-74" transform="translate(306.103516 0)"/>
     <use xlink:href="#DejaVuSans-69" transform="translate(345.3125 0)"/>
     <use xlink:href="#DejaVuSans-6f" transform="translate(373.095703 0)"/>
     <use xlink:href="#DejaVuSans-6e" transform="translate(434.277344 0)"/>
     <use xlink:href="#DejaVuSans-61" transform="translate(497.65625 0)"/>
     <use xlink:href="#DejaVuSans-6c" transform="translate(558.935547 0)"/>
     <use xlink:href="#DejaVuSans-20" transform="translate(586.71875 0)"/>
     <use xlink:href="#DejaVuSans-65" transform="translate(618.505859 0)"/>
     <use xlink:href="#DejaVuSans-76" transform="translate(680.029297 0)"/>
     <use xlink:href="#DejaVuSans-65" transform="translate(739.208984 0)"/>
     <use xlink:href="#DejaVuSans-6e" transform="translate(800.732422 0)"/>
     <use xlink:href="#DejaVuSans-74" transform="translate(864.111328 0)"/>
     <use xlink:href="#DejaVuSans-20" transform="translate(903.320312 0)"/>
     <use xlink:href="#DejaVuSans-61" transform="translate(935.107422 0)"/>
     <use xlink:href="#DejaVuSans-6e" transform="translate(996.386719 0)"/>
     <use xlink:href="#DejaVuSans-64" transform="translate(1059.765625 0)"/>
     <use xlink:href="#DejaVuSans-20" transform="translate(1123.242188 0)"/>
     <use xlink:href="#DejaVuSans-70" transform="translate(1155.029297 0)"/>
     <use xlink:href="#DejaVuSans-6f" transform="translate(1218.505859 0)"/>
     <use xlink:href="#DejaVuSans-69" transform="translate(1279.6875 0)"/>
     <use xlink:href="#DejaVuSans-6e" transform="translate(1307.470703 0)"/>
     <use xlink:href="#DejaVuSans-74" transform="translate(1370.849609 0)"/>
     <use xlink:href="#DejaVuSans-20" transform="translate(1410.058594 0)"/>
     <use xlink:href="#DejaVuSans-61" transform="translate(1441.845703 0)"/>
     <use xlink:href="#DejaVuSans-6e" transform="translate(1503.125 0)"/>
     <use xlink:href="#DejaVuSans-6e" transform="translate(1566.503906 0)"/>
     <use xlink:href="#DejaVuSans-6f" transform="translate(1629.882812 0)"/>
     <use xlink:href="#DejaVuSans-74" transform="translate(1691.064453 0)"/>
     <use xlink:href="#DejaVuSans-61" transform="translate(1730.273438 0)"/>
     <use xlink:href="#DejaVuSans-74" transform="translate(1791.552734 0)"/>
     <use xlink:href="#DejaVuSans-69" transform="translate(1830.761719 0)"/>
     <use xlink:href="#DejaVuSans-6f" transform="translate(1858.544922 0)"/>
     <use xlink:href="#DejaVuSans-6e" transform="translate(1919.726562 0)"/>
     <use xlink:href="#DejaVuSans-73" transform="translate(1983.105469 0)"/>
    </g>
   </g>
   <g id="PathCollection_1">
    <defs>
     <path id="m157c0d4031" d="M 0 3.708099 
C 0.983399 3.708099 1.926654 3.317391 2.622022 2.622022 
C 3.317391 1.926654 3.708099 0.983399 3.708099 0 
C 3.708099 -0.983399 3.317391 -1.926654 2.622022 -2.622022 
C 1.926654 -3.317391 0.983399 -3.708099 0 -3.708099 
C -0.983399 -3.708099 -1.926654 -3.317391 -2.622022 -2.622022 
C -3.317391 -1.926654 -3.708099 -0.983399 -3.708099 0 
C -3.708099 0.983399 -3.317391 1.926654 -2.622022 2.622022 
C -1.926654 3.317391 -0.983399 3.708099 0 3.708099 
z
" style="stroke: #ffffff"/>
    </defs>
    <g clip-path="url(#pcde96b328c)">
     <use xlink:href="#m157c0d4031" x="46.41534" y="159.637877" style="fill: #c0504d; stroke: #ffffff"/>
     <use xlink:href="#m157c0d4031" x="46.85368" y="126.987973" style="fill: #c0504d; stroke: #ffffff"/>
     <use xlink:href="#m157c0d4031" x="55.881034" y="96.971983" style="fill: #c0504d; stroke: #ffffff"/>
     <use xlink:href="#m157c0d4031" x="72.170845" y="74.000717" style="fill: #c0504d; stroke: #ffffff"/>
     <use xlink:href="#m157c0d4031" x="93.329344" y="61.449775" style="fill: #c0504d; stroke: #ffffff"/>
     <use xlink:href="#m157c0d4031" x="117.276122" y="61.449775" style="fill: #c0504d; stroke: #ffffff"/>
     <use xlink:href="#m157c0d4031" x="138.434622" y="74.000717" style="fill: #c0504d; stroke: #ffffff"/>
     <use xlink:href="#m157c0d4031" x="154.724432" y="96.971983" style="fill: #c0504d; stroke: #ffffff"/>
     <use xlink:href="#m157c0d4031" x="163.751787" y="126.987973" style="fill: #c0504d; stroke: #ffffff"/>
     <use xlink:href="#m157c0d4031" x="163.999881" y="161.106653" style="fill: #c0504d; stroke: #ffffff"/>
    </g>
   </g>
   <g id="legend_1">
    <g id="patch_8">
     <path d="M 15.56 295.4 
L 118.468437 295.4 
Q 119.828437 295.4 119.828437 294.04 
L 119.828437 274.75775 
Q 119.828437 273.39775 118.468437 273.39775 
L 15.56 273.39775 
Q 14.2 273.39775 14.2 274.75775 
L 14.2 294.04 
Q 14.2 295.4 15.56 295.4 
z
" style="fill: #ffffff; opacity: 0.9; stroke: #cccccc; stroke-linejoin: miter"/>
    </g>
    <g id="line2d_6">
     <path d="M 16.92 278.904687 
L 23.72 278.904687 
L 30.52 278.904687 
" style="fill: none; stroke-dasharray: 5.92,2.56; stroke-dashoffset: 0; stroke: #4f81bd; stroke-opacity: 0.8; stroke-width: 1.6"/>
    </g>
    <g id="text_6">
     <!-- Clubhead swing arc -->
     <g transform="translate(35.96 281.284687) scale(0.068 -0.068)">
      <defs>
       <path id="DejaVuSans-43" d="M 4122 4306 
L 4122 3641 
Q 3803 3938 3442 4084 
Q 3081 4231 2675 4231 
Q 1875 4231 1450 3742 
Q 1025 3253 1025 2328 
Q 1025 1406 1450 917 
Q 1875 428 2675 428 
Q 3081 428 3442 575 
Q 3803 722 4122 1019 
L 4122 359 
Q 3791 134 3420 21 
Q 3050 -91 2638 -91 
Q 1578 -91 968 557 
Q 359 1206 359 2328 
Q 359 3453 968 4101 
Q 1578 4750 2638 4750 
Q 3056 4750 3426 4639 
Q 3797 4528 4122 4306 
z
" transform="scale(0.015625)"/>
       <path id="DejaVuSans-75" d="M 544 1381 
L 544 3500 
L 1119 3500 
L 1119 1403 
Q 1119 906 1312 657 
Q 1506 409 1894 409 
Q 2359 409 2629 706 
Q 2900 1003 2900 1516 
L 2900 3500 
L 3475 3500 
L 3475 0 
L 2900 0 
L 2900 538 
Q 2691 219 2414 64 
Q 2138 -91 1772 -91 
Q 1169 -91 856 284 
Q 544 659 544 1381 
z
M 1991 3584 
L 1991 3584 
z
" transform="scale(0.015625)"/>
       <path id="DejaVuSans-62" d="M 3116 1747 
Q 3116 2381 2855 2742 
Q 2594 3103 2138 3103 
Q 1681 3103 1420 2742 
Q 1159 2381 1159 1747 
Q 1159 1113 1420 752 
Q 1681 391 2138 391 
Q 2594 391 2855 752 
Q 3116 1113 3116 1747 
z
M 1159 2969 
Q 1341 3281 1617 3432 
Q 1894 3584 2278 3584 
Q 2916 3584 3314 3078 
Q 3713 2572 3713 1747 
Q 3713 922 3314 415 
Q 2916 -91 2278 -91 
Q 1894 -91 1617 61 
Q 1341 213 1159 525 
L 1159 0 
L 581 0 
L 581 4863 
L 1159 4863 
L 1159 2969 
z
" transform="scale(0.015625)"/>
       <path id="DejaVuSans-68" d="M 3513 2113 
L 3513 0 
L 2938 0 
L 2938 2094 
Q 2938 2591 2744 2837 
Q 2550 3084 2163 3084 
Q 1697 3084 1428 2787 
Q 1159 2491 1159 1978 
L 1159 0 
L 581 0 
L 581 4863 
L 1159 4863 
L 1159 2956 
Q 1366 3272 1645 3428 
Q 1925 3584 2291 3584 
Q 2894 3584 3203 3211 
Q 3513 2838 3513 2113 
z
" transform="scale(0.015625)"/>
       <path id="DejaVuSans-77" d="M 269 3500 
L 844 3500 
L 1563 769 
L 2278 3500 
L 2956 3500 
L 3675 769 
L 4391 3500 
L 4966 3500 
L 4050 0 
L 3372 0 
L 2619 2869 
L 1863 0 
L 1184 0 
L 269 3500 
z
" transform="scale(0.015625)"/>
       <path id="DejaVuSans-67" d="M 2906 1791 
Q 2906 2416 2648 2759 
Q 2391 3103 1925 3103 
Q 1463 3103 1205 2759 
Q 947 2416 947 1791 
Q 947 1169 1205 825 
Q 1463 481 1925 481 
Q 2391 481 2648 825 
Q 2906 1169 2906 1791 
z
M 3481 434 
Q 3481 -459 3084 -895 
Q 2688 -1331 1869 -1331 
Q 1566 -1331 1297 -1286 
Q 1028 -1241 775 -1147 
L 775 -588 
Q 1028 -725 1275 -790 
Q 1522 -856 1778 -856 
Q 2344 -856 2625 -561 
Q 2906 -266 2906 331 
L 2906 616 
Q 2728 306 2450 153 
Q 2172 0 1784 0 
Q 1141 0 747 490 
Q 353 981 353 1791 
Q 353 2603 747 3093 
Q 1141 3584 1784 3584 
Q 2172 3584 2450 3431 
Q 2728 3278 2906 2969 
L 2906 3500 
L 3481 3500 
L 3481 434 
z
" transform="scale(0.015625)"/>
       <path id="DejaVuSans-63" d="M 3122 3366 
L 3122 2828 
Q 2878 2963 2633 3030 
Q 2388 3097 2138 3097 
Q 1578 3097 1268 2742 
Q 959 2388 959 1747 
Q 959 1106 1268 751 
Q 1578 397 2138 397 
Q 2388 397 2633 464 
Q 2878 531 3122 666 
L 3122 134 
Q 2881 22 2623 -34 
Q 2366 -91 2075 -91 
Q 1284 -91 818 406 
Q 353 903 353 1747 
Q 353 2603 823 3093 
Q 1294 3584 2113 3584 
Q 2378 3584 2631 3529 
Q 2884 3475 3122 3366 
z
" transform="scale(0.015625)"/>
      </defs>
      <use xlink:href="#DejaVuSans-43"/>
      <use xlink:href="#DejaVuSans-6c" transform="translate(69.824219 0)"/>
      <use xlink:href="#DejaVuSans-75" transform="translate(97.607422 0)"/>
      <use xlink:href="#DejaVuSans-62" transform="translate(160.986328 0)"/>
      <use xlink:href="#DejaVuSans-68" transform="translate(224.462891 0)"/>
      <use xlink:href="#DejaVuSans-65" transform="translate(287.841797 0)"/>
      <use xlink:href="#DejaVuSans-61" transform="translate(349.365234 0)"/>
      <use xlink:href="#DejaVuSans-64" transform="translate(410.644531 0)"/>
      <use xlink:href="#DejaVuSans-20" transform="translate(474.121094 0)"/>
      <use xlink:href="#DejaVuSans-73" transform="translate(505.908203 0)"/>
      <use xlink:href="#DejaVuSans-77" transform="translate(558.007812 0)"/>
      <use xlink:href="#DejaVuSans-69" transform="translate(639.794922 0)"/>
      <use xlink:href="#DejaVuSans-6e" transform="translate(667.578125 0)"/>
      <use xlink:href="#DejaVuSans-67" transform="translate(730.957031 0)"/>
      <use xlink:href="#DejaVuSans-20" transform="translate(794.433594 0)"/>
      <use xlink:href="#DejaVuSans-61" transform="translate(826.220703 0)"/>
      <use xlink:href="#DejaVuSans-72" transform="translate(887.5 0)"/>
      <use xlink:href="#DejaVuSans-63" transform="translate(926.363281 0)"/>
     </g>
    </g>
    <g id="PathCollection_2">
     <g>
      <use xlink:href="#m157c0d4031" x="23.72" y="289.480812" style="fill: #c0504d; stroke: #ffffff"/>
     </g>
    </g>
    <g id="text_7">
     <!-- Manual clubhead points -->
     <g transform="translate(35.96 291.265812) scale(0.068 -0.068)">
      <defs>
       <path id="DejaVuSans-4d" d="M 628 4666 
L 1569 4666 
L 2759 1491 
L 3956 4666 
L 4897 4666 
L 4897 0 
L 4281 0 
L 4281 4097 
L 3078 897 
L 2444 897 
L 1241 4097 
L 1241 0 
L 628 0 
L 628 4666 
z
" transform="scale(0.015625)"/>
      </defs>
      <use xlink:href="#DejaVuSans-4d"/>
      <use xlink:href="#DejaVuSans-61" transform="translate(86.279297 0)"/>
      <use xlink:href="#DejaVuSans-6e" transform="translate(147.558594 0)"/>
      <use xlink:href="#DejaVuSans-75" transform="translate(210.9375 0)"/>
      <use xlink:href="#DejaVuSans-61" transform="translate(274.316406 0)"/>
      <use xlink:href="#DejaVuSans-6c" transform="translate(335.595703 0)"/>
      <use xlink:href="#DejaVuSans-20" transform="translate(363.378906 0)"/>
      <use xlink:href="#DejaVuSans-63" transform="translate(395.166016 0)"/>
      <use xlink:href="#DejaVuSans-6c" transform="translate(450.146484 0)"/>
      <use xlink:href="#DejaVuSans-75" transform="translate(477.929688 0)"/>
      <use xlink:href="#DejaVuSans-62" transform="translate(541.308594 0)"/>
      <use xlink:href="#DejaVuSans-68" transform="translate(604.785156 0)"/>
      <use xlink:href="#DejaVuSans-65" transform="translate(668.164062 0)"/>
      <use xlink:href="#DejaVuSans-61" transform="translate(729.6875 0)"/>
      <use xlink:href="#DejaVuSans-64" transform="translate(790.966797 0)"/>
      <use xlink:href="#DejaVuSans-20" transform="translate(854.443359 0)"/>
      <use xlink:href="#DejaVuSans-70" transform="translate(886.230469 0)"/>
      <use xlink:href="#DejaVuSans-6f" transform="translate(949.707031 0)"/>
      <use xlink:href="#DejaVuSans-69" transform="translate(1010.888672 0)"/>
      <use xlink:href="#DejaVuSans-6e" transform="translate(1038.671875 0)"/>
      <use xlink:href="#DejaVuSans-74" transform="translate(1102.050781 0)"/>
      <use xlink:href="#DejaVuSans-73" transform="translate(1141.259766 0)"/>
     </g>
    </g>
   </g>
   <g id="PathCollection_3">
    <defs>
     <path id="m91a9a9232f" d="M 0 -6.123724 
L -1.374862 -1.892335 
L -5.824008 -1.892335 
L -2.224573 0.722808 
L -3.599435 4.954197 
L -0 2.339054 
L 3.599435 4.954197 
L 2.224573 0.722808 
L 5.824008 -1.892335 
L 1.374862 -1.892335 
z
" style="stroke: #000000; stroke-width: 0.5"/>
    </defs>
    <g clip-path="url(#pcde96b328c)">
     <use xlink:href="#m91a9a9232f" x="47.546336" y="166.927486" style="fill: #9bbb59; stroke: #000000; stroke-width: 0.5"/>
    </g>
   </g>
   <g id="PathCollection_4">
    <defs>
     <path id="m4bc7630466" d="M 0 -6.123724 
L -1.374862 -1.892335 
L -5.824008 -1.892335 
L -2.224573 0.722808 
L -3.599435 4.954197 
L -0 2.339054 
L 3.599435 4.954197 
L 2.224573 0.722808 
L 5.824008 -1.892335 
L 1.374862 -1.892335 
z
" style="stroke: #000000; stroke-width: 0.5"/>
    </defs>
    <g clip-path="url(#pcde96b328c)">
     <use xlink:href="#m4bc7630466" x="164.362271" y="158.164574" style="fill: #8064a2; stroke: #000000; stroke-width: 0.5"/>
    </g>
   </g>
   <g id="PathCollection_5">
    <defs>
     <path id="mdc2dab1ba0" d="M 0 -6.123724 
L -1.374862 -1.892335 
L -5.824008 -1.892335 
L -2.224573 0.722808 
L -3.599435 4.954197 
L -0 2.339054 
L 3.599435 4.954197 
L 2.224573 0.722808 
L 5.824008 -1.892335 
L 1.374862 -1.892335 
z
" style="stroke: #000000; stroke-width: 0.5"/>
    </defs>
    <g clip-path="url(#pcde96b328c)">
     <use xlink:href="#mdc2dab1ba0" x="163.274829" y="124.079261" style="fill: #4f81bd; stroke: #000000; stroke-width: 0.5"/>
    </g>
   </g>
   <g id="PathCollection_6">
    <defs>
     <path id="mba3172d2bf" d="M 0 -6.123724 
L -1.374862 -1.892335 
L -5.824008 -1.892335 
L -2.224573 0.722808 
L -3.599435 4.954197 
L -0 2.339054 
L 3.599435 4.954197 
L 2.224573 0.722808 
L 5.824008 -1.892335 
L 1.374862 -1.892335 
z
" style="stroke: #000000; stroke-width: 0.5"/>
    </defs>
    <g clip-path="url(#pcde96b328c)">
     <use xlink:href="#mba3172d2bf" x="105.826853" y="59.727273" style="fill: #c0504d; stroke: #000000; stroke-width: 0.5"/>
    </g>
   </g>
  </g>
 </g>
 <defs>
  <clipPath id="pcde96b328c">
   <rect x="10.8" y="24" width="192.862721" height="274.8"/>
  </clipPath>
 </defs>
</svg>
